<svg id="Capa_1" enable-background="new 0 0 512 512" height="512" viewBox="0 0 512 512" width="512" xmlns="http://www.w3.org/2000/svg"><g><g><path d="m458.802 236.516v-58.629c0-8.284-6.716-15-15-15h-40.537v88.629h40.537c8.284 0 15-6.716 15-15z" fill="#f6e266"/></g><g><path d="m458.802 236.551v-24.675c0 8.265-6.7 14.965-14.965 14.965h-40.572v24.675h40.572c8.265 0 14.965-6.7 14.965-14.965z" fill="#ffd064"/></g><g><path d="m458.802 371.2v-58.629c0-8.284-6.716-15-15-15h-40.537v88.629h40.537c8.284 0 15-6.716 15-15z" fill="#e28086"/></g><g><path d="m458.802 371.235v-24.675c0 8.265-6.7 14.965-14.965 14.965h-40.572v24.675h40.572c8.265 0 14.965-6.7 14.965-14.965z" fill="#dd636e"/></g><g><path d="m458.802 173.468v-58.628c0-8.284-6.716-15-15-15h-40.537v88.629h40.537c8.284-.001 15-6.716 15-15.001z" fill="#9dc6fb"/></g><g><path d="m458.802 173.503v-24.675c0 8.265-6.7 14.965-14.965 14.965h-40.572v24.675h40.572c8.265 0 14.965-6.7 14.965-14.965z" fill="#80b4fb"/></g><g><path d="m393.094 497.16h-288.48c-13.807 0-25-11.193-25-25v-432.298c0-13.807 11.193-25 25-25h288.48c13.807 0 25 11.193 25 25v432.298c0 13.807-11.193 25-25 25z" fill="#ecbe6b"/></g><g><path d="m393.152 14.862h-9.648v437.731c0 5.51-4.467 9.977-9.977 9.977h-293.913v9.648c0 13.775 11.167 24.942 24.942 24.942h288.596c13.775 0 24.942-11.167 24.942-24.942v-432.415c0-13.775-11.167-24.941-24.942-24.941z" fill="#eab14d"/></g><g><path d="m348.108 512c-4.133 0-7.483-3.35-7.483-7.483v-497.034c0-4.132 3.35-7.483 7.483-7.483s7.483 3.35 7.483 7.483v497.035c0 4.132-3.35 7.482-7.483 7.482z" fill="#dd636e"/></g><g><circle cx="131.645" cy="86.236" fill="#365e7d" r="23.647"/></g><g><path d="m139.901 64.073c.958 2.571 1.484 5.351 1.484 8.256 0 13.06-10.587 23.647-23.647 23.647-2.904 0-5.685-.526-8.256-1.484 3.35 8.988 12.007 15.391 22.163 15.391 13.06 0 23.647-10.587 23.647-23.647 0-10.155-6.403-18.813-15.391-22.163z" fill="#2b4d66"/></g><g><path d="m120.53 78.446h-59.85c-4.133 0-7.483-3.35-7.483-7.483 0-4.132 3.35-7.483 7.483-7.483h59.85c4.133 0 7.483 3.35 7.483 7.483s-3.35 7.483-7.483 7.483z" fill="#e7ecf6"/></g><g><path d="m120.53 108.991h-59.85c-4.133 0-7.483-3.35-7.483-7.483 0-4.132 3.35-7.483 7.483-7.483h59.85c4.133 0 7.483 3.35 7.483 7.483s-3.35 7.483-7.483 7.483z" fill="#e7ecf6"/></g><g><circle cx="131.645" cy="170.773" fill="#365e7d" r="23.647"/></g><g><path d="m139.901 148.61c.958 2.571 1.484 5.351 1.484 8.256 0 13.06-10.587 23.647-23.647 23.647-2.904 0-5.685-.526-8.256-1.484 3.35 8.988 12.007 15.391 22.163 15.391 13.06 0 23.647-10.587 23.647-23.647 0-10.156-6.403-18.813-15.391-22.163z" fill="#2b4d66"/></g><g><path d="m120.53 162.982h-59.85c-4.133 0-7.483-3.35-7.483-7.483 0-4.132 3.35-7.483 7.483-7.483h59.85c4.133 0 7.483 3.35 7.483 7.483s-3.35 7.483-7.483 7.483z" fill="#e7ecf6"/></g><g><path d="m120.53 193.528h-59.85c-4.133 0-7.483-3.35-7.483-7.483s3.35-7.483 7.483-7.483h59.85c4.133 0 7.483 3.35 7.483 7.483s-3.35 7.483-7.483 7.483z" fill="#e7ecf6"/></g><g><circle cx="131.645" cy="255.364" fill="#365e7d" r="23.647"/></g><g><path d="m139.901 233.202c.958 2.571 1.484 5.351 1.484 8.256 0 13.06-10.587 23.647-23.647 23.647-2.904 0-5.685-.526-8.256-1.484 3.35 8.988 12.007 15.391 22.163 15.391 13.06 0 23.647-10.587 23.647-23.647 0-10.156-6.403-18.814-15.391-22.163z" fill="#2b4d66"/></g><g><path d="m120.53 247.574h-59.85c-4.133 0-7.483-3.35-7.483-7.483s3.35-7.483 7.483-7.483h59.85c4.133 0 7.483 3.35 7.483 7.483s-3.35 7.483-7.483 7.483z" fill="#e7ecf6"/></g><g><path d="m120.53 278.119h-59.85c-4.133 0-7.483-3.35-7.483-7.483s3.35-7.483 7.483-7.483h59.85c4.133 0 7.483 3.35 7.483 7.483s-3.35 7.483-7.483 7.483z" fill="#e7ecf6"/></g><g><circle cx="131.645" cy="339.901" fill="#365e7d" r="23.647"/></g><g><path d="m139.901 317.738c.958 2.571 1.484 5.351 1.484 8.256 0 13.06-10.587 23.647-23.647 23.647-2.904 0-5.685-.526-8.256-1.484 3.35 8.988 12.007 15.391 22.163 15.391 13.06 0 23.647-10.587 23.647-23.647 0-10.156-6.403-18.813-15.391-22.163z" fill="#2b4d66"/></g><g><path d="m120.53 332.111h-59.85c-4.133 0-7.483-3.35-7.483-7.483s3.35-7.483 7.483-7.483h59.85c4.133 0 7.483 3.35 7.483 7.483s-3.35 7.483-7.483 7.483z" fill="#e7ecf6"/></g><g><path d="m120.53 362.656h-59.85c-4.133 0-7.483-3.35-7.483-7.483s3.35-7.483 7.483-7.483h59.85c4.133 0 7.483 3.35 7.483 7.483s-3.35 7.483-7.483 7.483z" fill="#e7ecf6"/></g><g><circle cx="131.645" cy="424.438" fill="#365e7d" r="23.647"/></g><g><path d="m139.901 402.275c.958 2.571 1.484 5.351 1.484 8.256 0 13.06-10.587 23.647-23.647 23.647-2.904 0-5.685-.526-8.256-1.484 3.35 8.988 12.007 15.391 22.163 15.391 13.06 0 23.647-10.587 23.647-23.647 0-10.156-6.403-18.814-15.391-22.163z" fill="#2b4d66"/></g><g><path d="m120.53 416.647h-59.85c-4.133 0-7.483-3.35-7.483-7.483s3.35-7.483 7.483-7.483h59.85c4.133 0 7.483 3.35 7.483 7.483s-3.35 7.483-7.483 7.483z" fill="#e7ecf6"/></g><g><path d="m120.53 447.193h-59.85c-4.133 0-7.483-3.35-7.483-7.483s3.35-7.483 7.483-7.483h59.85c4.133 0 7.483 3.35 7.483 7.483s-3.35 7.483-7.483 7.483z" fill="#e7ecf6"/></g><g><path d="m298.894 240.092h-96.131c-9.941 0-18-8.059-18-18v-53.115c0-9.941 8.059-18 18-18h96.131c9.941 0 18 8.059 18 18v53.115c0 9.941-8.059 18-18 18z" fill="#f9f6f9"/></g><g><path d="m303.627 151.617c.405 1.498.64 3.065.64 4.691v53.199c0 9.918-8.04 17.958-17.958 17.958h-96.215c-1.626 0-3.193-.236-4.691-.64 2.065 7.639 9.025 13.267 17.318 13.267h96.215c9.918 0 17.958-8.04 17.958-17.958v-53.199c0-8.293-5.628-15.253-13.267-17.318z" fill="#e7ecf6"/></g><g><g><path d="m273.848 187.13h-47.673c-4.133 0-7.483-3.35-7.483-7.483s3.35-7.483 7.483-7.483h47.673c4.133 0 7.483 3.35 7.483 7.483s-3.35 7.483-7.483 7.483z" fill="#d8e2f1"/></g><g><path d="m273.848 216.674h-47.673c-4.133 0-7.483-3.35-7.483-7.483 0-4.132 3.35-7.483 7.483-7.483h47.673c4.133 0 7.483 3.35 7.483 7.483s-3.35 7.483-7.483 7.483z" fill="#d8e2f1"/></g></g></g></svg>